<?xml version="1.0" encoding="UTF-8" standalone="no"?>
<!-- Created with Inkscape (http://www.inkscape.org/) -->

<svg
   xmlns:dc="http://purl.org/dc/elements/1.1/"
   xmlns:cc="http://creativecommons.org/ns#"
   xmlns:rdf="http://www.w3.org/1999/02/22-rdf-syntax-ns#"
   xmlns:svg="http://www.w3.org/2000/svg"
   xmlns="http://www.w3.org/2000/svg"
   xmlns:sodipodi="http://sodipodi.sourceforge.net/DTD/sodipodi-0.dtd"
   xmlns:inkscape="http://www.inkscape.org/namespaces/inkscape"
   width="32"
   height="32"
   id="svg2"
   version="1.1"
   inkscape:version="0.48.2 r9819"
   sodipodi:docname="nlarn.svg"
   inkscape:export-filename="C:\temp\nlarn-48.png"
   inkscape:export-xdpi="90"
   inkscape:export-ydpi="90">
  <defs
     id="defs4" />
  <sodipodi:namedview
     id="base"
     pagecolor="#ffffff"
     bordercolor="#666666"
     borderopacity="1.0"
     inkscape:pageopacity="0.0"
     inkscape:pageshadow="2"
     inkscape:zoom="16"
     inkscape:cx="16.898945"
     inkscape:cy="16.343395"
     inkscape:document-units="px"
     inkscape:current-layer="layer1"
     showgrid="false"
     inkscape:window-width="1203"
     inkscape:window-height="754"
     inkscape:window-x="475"
     inkscape:window-y="146"
     inkscape:window-maximized="0" />
  <metadata
     id="metadata7">
    <rdf:RDF>
      <cc:Work
         rdf:about="">
        <dc:format>image/svg+xml</dc:format>
        <dc:type
           rdf:resource="http://purl.org/dc/dcmitype/StillImage" />
        <dc:title></dc:title>
      </cc:Work>
    </rdf:RDF>
  </metadata>
  <g
     inkscape:label="Ebene 1"
     inkscape:groupmode="layer"
     id="layer1"
     transform="translate(0,-1020.3622)">
    <g
       transform="matrix(1.544571,0,0,1.3089604,-1.2453711,1014.5533)"
       style="font-size:26px;font-style:normal;font-variant:normal;font-weight:normal;font-stretch:normal;line-height:125%;letter-spacing:0px;word-spacing:0px;fill:#2b0000;fill-opacity:1;stroke:none;font-family:ShadowedBlack;-inkscape-font-specification:ShadowedBlack"
       id="flowRoot4529"
       inkscape:export-filename="c:\temp\nlarn-16.ico.png"
       inkscape:export-xdpi="48.074379"
       inkscape:export-ydpi="48.074379">
      <path
         d="m 4.7335,9.2508548 -1.404,2.2620002 c -0.2253355,0.34668 -0.4333353,0.780013 -0.624,1.3 -0.2253349,0.554679 -0.4333347,1.152678 -0.624,1.794 -0.1733343,0.641344 -0.3206675,1.308676 -0.442,2.002 -0.1040006,0.676008 -0.1560005,1.308674 -0.156,1.898 -5e-7,1.612005 0.3033325,3.007337 0.91,4.186 0.3119982,0.624002 0.6759979,1.196002 1.092,1.716 0.2079972,0.277334 0.4333304,0.537334 0.676,0.78 0.3293298,0.485333 1.5079953,1.221999 3.536,2.21 0.1039931,0.052 1.1266588,0.242665 3.068,0.572 0.658656,0.103998 1.152656,0.121331 1.482,0.052 1.317321,-0.277336 2.09732,-0.468002 2.34,-0.572 1.455985,-0.554668 2.89465,-1.438667 4.316,-2.652 l -2.496,1.248 -2.808,0.832 -0.52,0.208 c -0.03468,0.01733 -0.468012,-2e-6 -1.3,-0.052 -1.230676,-0.06933 -1.8893423,-0.121335 -1.976,-0.156 -0.2600086,-0.08667 -0.8146747,-0.312001 -1.664,-0.676 l -1.612,-1.196 c -0.5026718,-1.091998 -0.7626715,-1.663998 -0.78,-1.716 -0.4160044,-1.733329 -0.6240042,-2.599995 -0.624,-2.6 -0.052004,-0.155995 -0.086671,-0.866661 -0.104,-2.132 -4.1e-6,-1.057325 0.017329,-1.819991 0.052,-2.288 l 0.26,-2.86 0.364,-1.144 c 0.086662,-0.259986 0.3553282,-0.814653 0.806,-1.664 0.2253275,-0.415985 0.3553274,-0.6326511 0.39,-0.6500002 0.2773271,-0.3986504 0.6066601,-0.7973167 0.988,-1.196 l 0.572,-0.442 1.872,-0.676 1.404,-0.208 1.144,0.312 0.52,0.156 1.456,0.884 1.924,1.8720002 c 1.317316,2.253346 1.802649,4.697344 1.456,7.332 l -0.468,1.768 c -0.156017,0.832005 -0.476683,1.681337 -0.962,2.548 -0.190682,0.34667 -0.346682,0.381336 -0.468,0.104 -0.104015,-0.207997 -0.02602,-0.415996 0.234,-0.624 0.155984,-0.121329 0.129984,-0.233996 -0.078,-0.338 -0.05201,-0.01733 -0.121349,4e-6 -0.208,0.052 -0.06935,0.052 -0.147349,0.130004 -0.234,0.234 -0.08668,0.104004 -0.164682,0.19067 -0.234,0.26 -0.485348,-0.294663 -0.754014,-0.675996 -0.806,-1.144 -0.05201,-0.467995 -0.08668,-1.083328 -0.104,-1.846 -0.01735,-0.849326 -0.02601,-1.577325 -0.026,-2.184 -1.4e-5,-0.606657 0.03465,-1.334657 0.104,-2.184 0.05199,-0.641322 0.138652,-1.161321 0.26,-1.56 0.138652,-0.415987 0.277319,-0.74532 0.416,-0.988 0.138652,-0.242653 0.259985,-0.424653 0.364,-0.546 0.103985,-0.121319 0.155985,-0.225319 0.156,-0.312 -1.5e-5,-0.06932 -0.01735,-0.103986 -0.052,-0.104 -0.03468,-0.01732 -0.07802,-0.07798 -0.13,-0.182 l -0.286,0 c -0.08668,0.225348 -0.164681,0.390014 -0.234,0.494 -0.05201,0.08668 -0.216681,0.294681 -0.494,0.624 -0.589347,-0.745319 -1.07468,-1.273985 -1.456,-1.586 -0.381346,-0.329318 -0.684679,-0.4939844 -0.91,-0.4940002 -0.06935,1.58e-5 -0.216678,0.1126822 -0.442,0.3380002 l -0.702,0.754 c -0.381343,0.416014 -0.632677,0.667347 -0.754,0.754 -0.450676,0.329347 -0.641342,0.442013 -0.572,0.338 l -0.312,-1.196 c 0.086658,-0.06932 0.103991,-0.129985 0.052,-0.182 -0.2426754,-0.259985 -0.5113418,-0.407318 -0.806,-0.442 l -0.806,0.208 c -0.312007,0.277348 -0.4160069,0.632681 -0.312,1.066 0.1039929,0.50268 0.1906595,0.73668 0.26,0.702 l 0.598,0.546 c 0.1906586,0.173346 0.3033252,0.355346 0.338,0.546 0.086658,0.416012 0.1906583,0.866678 0.312,1.352 0.138658,0.485344 0.3726578,0.979343 0.702,1.482 -0.3293422,0.225342 -0.6760086,0.407342 -1.04,0.546 -0.3466745,0.138675 -0.6760075,0.320675 -0.988,0.546 -0.2946736,0.208008 -0.5460067,0.520008 -0.754,0.936 -0.1906729,0.398674 -0.2860062,0.988006 -0.286,1.768 l 0,2.366 c -6.2e-6,0.19067 -0.060673,0.407336 -0.182,0.65 -0.069339,0.121336 -0.1993391,0.346669 -0.39,0.676 l -0.39,0.676 c -0.1040051,0.190668 -0.156005,0.372667 -0.156,0.546 -5e-6,0.138667 0.069328,0.147334 0.208,0.026 0.1386613,-0.155999 0.2773278,-0.337999 0.416,-0.546 l 0.494,-0.676 c 0.173327,-0.242665 0.2773269,-0.381331 0.312,-0.416 0.519993,0.589335 0.9706592,1.057335 1.352,1.404 0.3813251,0.346667 0.6413249,0.52 0.78,0.52 0.1213246,0 0.2253245,-0.06067 0.312,-0.182 l 0.936,-1.404 c 0.20799,-0.311998 0.54599,-0.701997 1.014,-1.17 0.155989,0.13867 0.389989,0.372669 0.702,0.702 l 0.806,0.858 c 0.381321,0.381334 0.632654,0.615334 0.754,0.702 0.519986,0.416 0.849319,0.615334 0.988,0.598 0.589319,-0.03467 1.143985,-0.190666 1.664,-0.468 0.901317,-0.485332 1.351983,-0.797332 1.352,-0.936 l 0.546,-0.754 c 0.207982,-0.450664 0.658648,-1.273996 1.352,-2.47 0.294647,-0.485328 0.537314,-1.239327 0.728,-2.262 0.121313,-0.710659 0.18198,-1.308658 0.182,-1.794 -2e-5,-0.710657 -0.02602,-1.343323 -0.078,-1.898 -0.08669,-0.849322 -0.173353,-1.377988 -0.26,-1.586 -0.381353,-0.90132 -0.528686,-1.39532 -0.442,-1.482 -1.9e-5,1.4e-5 -0.216686,-0.511319 -0.65,-1.534 -0.277352,-0.6586506 -0.762684,-1.4126499 -1.456,-2.2620002 l -1.846,-1.768 c -0.01735,-0.034647 -0.589348,-0.2339801 -1.716,-0.598 -2.669344,-0.8666456 -5.4426747,-0.2426462 -8.32,1.872 l -1.378,1.82 m 7.176,9.2820002 0,2.444 c -1.1e-5,0.329338 -0.338011,0.780004 -1.014,1.352 -0.225343,-0.346663 -0.39001,-0.589329 -0.494,-0.728 -0.104009,-0.138663 -0.173343,-0.268662 -0.208,-0.39 -0.03468,-0.121329 -0.05201,-0.277329 -0.052,-0.468 0.01732,-0.207995 0.02599,-0.554661 0.026,-1.04 -9e-6,-0.433327 -0.0087,-0.745327 -0.026,-0.936 -9e-6,-0.207993 0.0087,-0.381326 0.026,-0.52 0.03466,-0.138659 0.08666,-0.285992 0.156,-0.442 0.06932,-0.155992 0.190657,-0.398658 0.364,-0.728 0.242657,0.173342 0.502656,0.407341 0.78,0.702 0.294656,0.277341 0.441989,0.528674 0.442,0.754 m 0,-3.198 c -1.1e-5,0.242677 -1.1e-5,0.485343 0,0.728 0.01732,0.242676 -0.01734,0.546009 -0.104,0.91 -0.41601,-0.467991 -0.719343,-0.823324 -0.91,-1.066 -0.190676,-0.242657 -0.33801,-0.46799 -0.442,-0.676 l -0.572,-1.742 0,-0.494 c 0.415991,-0.06932 0.693324,-0.155987 0.832,-0.26 0.138657,-0.103987 0.225323,-0.155987 0.26,-0.156 0.242656,1.3e-5 0.459323,0.225346 0.65,0.676 0.190656,0.433345 0.285989,1.126678 0.286,2.08"
         id="path4544"
         inkscape:connector-curvature="0"
         sodipodi:nodetypes="cccccsccccccccccccccccccccccccccccccccccccccccccccccccccccccccccccccccccccccccsccccccccccscccccccccccccccccccccccccccccccccccccccccccccc"
         style="fill:#2b0000" />
    </g>
  </g>
</svg>
